REM DIRINDEX 1\2,1\3,1\4,1\5,1\6
REM DIRNAME folder01,folder02,folder03,folder04,folder05,folder06
TITLE ""
FILE "DISC1Track09.mp3" MP3
  TRACK 01 AUDIO
    TITLE "0:"
    INDEX 01 00:00:00
  TRACK 02 AUDIO
    TITLE "3:cjc129_0216"
    INDEX 01 00:00:05
  TRACK 03 AUDIO
    TITLE "0:"
    INDEX 01 00:01:28
  TRACK 04 AUDIO
    TITLE "5:cjc129_0217"
    INDEX 01 00:03:00
  TRACK 05 AUDIO
    TITLE "0:"
    INDEX 01 00:05:01
  TRACK 06 AUDIO
    TITLE "4:cjc129_0218"
    INDEX 01 00:05:63
  TRACK 07 AUDIO
    TITLE "0:"
    INDEX 01 00:07:13
  TRACK 08 AUDIO
    TITLE "6:cjc129_0219"
    INDEX 01 00:07:45
  TRACK 09 AUDIO
    TITLE "0:"
    INDEX 01 00:11:66
  TRACK 10 AUDIO
    TITLE "3:cjc129_0220"
    INDEX 01 00:13:41
  TRACK 11 AUDIO
    TITLE "0:"
    INDEX 01 00:14:66
  TRACK 12 AUDIO
    TITLE "5:cjc129_0221"
    INDEX 01 00:16:20
  TRACK 13 AUDIO
    TITLE "0:"
    INDEX 01 00:18:46
  TRACK 14 AUDIO
    TITLE "4:cjc129_0222"
    INDEX 01 00:19:38
  TRACK 15 AUDIO
    TITLE "0:"
    INDEX 01 00:20:61
  TRACK 16 AUDIO
    TITLE "6:cjc129_0223"
    INDEX 01 00:21:19
  TRACK 17 AUDIO
    TITLE "0:"
    INDEX 01 00:24:45
  TRACK 18 AUDIO
    TITLE "3:cjc129_0224"
    INDEX 01 00:26:18
  TRACK 19 AUDIO
    TITLE "0:"
    INDEX 01 00:27:32
  TRACK 20 AUDIO
    TITLE "5:cjc129_0225"
    INDEX 01 00:29:01
  TRACK 21 AUDIO
    TITLE "0:"
    INDEX 01 00:33:66
  TRACK 22 AUDIO
    TITLE "4:cjc129_0226"
    INDEX 01 00:34:57
  TRACK 23 AUDIO
    TITLE "0:"
    INDEX 01 00:35:70
  TRACK 24 AUDIO
    TITLE "6:cjc129_0227"
    INDEX 01 00:36:27
  TRACK 25 AUDIO
    TITLE "0:"
    INDEX 01 00:39:21
  TRACK 26 AUDIO
    TITLE "3:cjc129_0228"
    INDEX 01 00:40:70
  TRACK 27 AUDIO
    TITLE "0:"
    INDEX 01 00:42:08
  TRACK 28 AUDIO
    TITLE "5:cjc129_0229"
    INDEX 01 00:43:37
  TRACK 29 AUDIO
    TITLE "0:"
    INDEX 01 00:45:43
  TRACK 30 AUDIO
    TITLE "4:cjc129_0230"
    INDEX 01 00:46:35
  TRACK 31 AUDIO
    TITLE "0:"
    INDEX 01 00:47:48
  TRACK 32 AUDIO
    TITLE "6:cjc129_0231"
    INDEX 01 00:48:06
  TRACK 33 AUDIO
    TITLE "0:"
    INDEX 01 00:52:26
  TRACK 34 AUDIO
    TITLE "3:cjc129_0232"
    INDEX 01 00:54:01
  TRACK 35 AUDIO
    TITLE "0:"
    INDEX 01 00:55:14
  TRACK 36 AUDIO
    TITLE "5:cjc129_0233"
    INDEX 01 00:56:57
  TRACK 37 AUDIO
    TITLE "0:"
    INDEX 01 00:59:08
  TRACK 38 AUDIO
    TITLE "4:cjc129_0234"
    INDEX 01 00:59:73
  TRACK 39 AUDIO
    TITLE "0:"
    INDEX 01 01:01:11
  TRACK 40 AUDIO
    TITLE "6:cjc129_0235"
    INDEX 01 01:01:44
  TRACK 41 AUDIO
    TITLE "0:"
    INDEX 01 01:04:52
  TRACK 42 AUDIO
    TITLE "3:cjc129_0236"
    INDEX 01 01:06:26
  TRACK 43 AUDIO
    TITLE "0:"
    INDEX 01 01:07:47
  TRACK 44 AUDIO
    TITLE "5:cjc129_0237"
    INDEX 01 01:08:03
  TRACK 45 AUDIO
    TITLE "0:"
    INDEX 01 01:09:59
  TRACK 46 AUDIO
    TITLE "4:cjc129_0238"
    INDEX 01 01:10:49
  TRACK 47 AUDIO
    TITLE "0:"
    INDEX 01 01:11:70
  TRACK 48 AUDIO
    TITLE "6:cjc129_0239"
    INDEX 01 01:12:26
  TRACK 49 AUDIO
    TITLE "0:"
    INDEX 01 01:16:67
  TRACK 50 AUDIO
    TITLE "3:cjc129_0240"
    INDEX 01 01:18:43
  TRACK 51 AUDIO
    TITLE "0:"
    INDEX 01 01:20:20
  TRACK 52 AUDIO
    TITLE "5:cjc129_0241"
    INDEX 01 01:20:51
  TRACK 53 AUDIO
    TITLE "0:"
    INDEX 01 01:22:50
  TRACK 54 AUDIO
    TITLE "4:cjc129_0242"
    INDEX 01 01:23:40
  TRACK 55 AUDIO
    TITLE "0:"
    INDEX 01 01:25:17
  TRACK 56 AUDIO
    TITLE "6:cjc129_0243"
    INDEX 01 01:25:49
  TRACK 57 AUDIO
    TITLE "0:"
    INDEX 01 01:29:50
  TRACK 58 AUDIO
    TITLE "3:cjc129_0244"
    INDEX 01 01:31:28
  TRACK 59 AUDIO
    TITLE "0:"
    INDEX 01 01:33:01
  TRACK 60 AUDIO
    TITLE "5:cjc129_0245"
    INDEX 01 01:33:33
  TRACK 61 AUDIO
    TITLE "0:"
    INDEX 01 01:35:45
  TRACK 62 AUDIO
    TITLE "4:cjc129_0246"
    INDEX 01 01:36:37
  TRACK 63 AUDIO
    TITLE "0:"
    INDEX 01 01:38:10
  TRACK 64 AUDIO
    TITLE "6:cjc129_0247"
    INDEX 01 01:38:42
  TRACK 65 AUDIO
    TITLE "0:"
    INDEX 01 01:43:21
  TRACK 66 AUDIO
    TITLE "3:cjc129_0248"
    INDEX 01 01:44:68
  TRACK 67 AUDIO
    TITLE "0:"
    INDEX 01 01:46:12
  TRACK 68 AUDIO
    TITLE "5:cjc129_0249"
    INDEX 01 01:46:43
  TRACK 69 AUDIO
    TITLE "0:"
    INDEX 01 01:51:01
  TRACK 70 AUDIO
    TITLE "4:cjc129_0250"
    INDEX 01 01:51:66
  TRACK 71 AUDIO
    TITLE "0:"
    INDEX 01 01:53:10
  TRACK 72 AUDIO
    TITLE "6:cjc129_0251"
    INDEX 01 01:53:41
  TRACK 73 AUDIO
    TITLE "0:"
    INDEX 01 01:57:66
  TRACK 74 AUDIO
    TITLE "3:cjc129_0252"
    INDEX 01 01:59:42
  TRACK 75 AUDIO
    TITLE "0:"
    INDEX 01 02:00:49
  TRACK 76 AUDIO
    TITLE "5:cjc129_0253"
    INDEX 01 02:01:05
  TRACK 77 AUDIO
    TITLE "0:"
    INDEX 01 02:07:57
  TRACK 78 AUDIO
    TITLE "4:cjc129_0254"
    INDEX 01 02:08:48
  TRACK 79 AUDIO
    TITLE "0:"
    INDEX 01 02:09:56
  TRACK 80 AUDIO
    TITLE "6:cjc129_0255"
    INDEX 01 02:10:12
  TRACK 81 AUDIO
    TITLE "0:"
    INDEX 01 02:14:43
